
<?xml version="1.0" standalone="no"?>
<!DOCTYPE svg PUBLIC "-//W3C//DTD SVG 20010904//EN"
 "http://www.w3.org/TR/2001/REC-SVG-20010904/DTD/svg10.dtd">
<svg version="1.0" xmlns="http://www.w3.org/2000/svg"
 width="1200.000000pt" height="135.000000pt" viewBox="0 0 1200.000000 135.000000"
 preserveAspectRatio="xMidYMid meet">

<g transform="translate(0.000000,135.000000) scale(0.100000,-0.100000)"
fill="#000000" stroke="none">
<path d="M535 1285 c-152 -31 -314 -141 -401 -273 -51 -76 -93 -202 -101 -299
-21 -279 162 -550 432 -640 142 -47 333 -35 456 28 l37 19 55 -26 c85 -38 189
-57 284 -51 375 25 650 378 579 742 -45 233 -228 430 -456 491 -126 34 -286
21 -407 -32 l-53 -23 -47 21 c-115 51 -260 67 -378 43z m268 -60 c197 -51 360
-214 411 -412 20 -77 20 -212 1 -286 -19 -73 -56 -148 -108 -215 -22 -29 -38
-54 -36 -56 2 -2 14 -7 26 -10 18 -6 29 2 62 47 82 108 125 237 125 377 0 172
-61 318 -186 442 -68 70 -75 79 -58 88 75 40 273 53 371 24 320 -94 498 -429
391 -737 -154 -447 -741 -531 -1012 -145 -149 212 -137 485 32 700 l29 37 -23
12 c-20 11 -25 8 -54 -25 -42 -49 -98 -156 -120 -231 -25 -82 -25 -248 0 -330
32 -107 85 -194 167 -278 86 -87 87 -82 -16 -112 -72 -21 -198 -24 -275 -6
-200 47 -366 205 -426 406 -26 87 -24 239 6 325 83 246 289 398 540 400 54 0
121 -7 153 -15z"/>
<path d="M2560 923 c-63 -23 -152 -114 -173 -177 -52 -152 17 -313 162 -380
66 -30 178 -29 247 3 64 28 115 78 95 91 -10 6 -26 -2 -53 -24 -73 -63 -195
-75 -286 -30 -168 83 -194 315 -49 439 98 84 231 83 345 -2 24 -18 37 -22 45
-14 15 15 -11 41 -76 76 -65 36 -185 44 -257 18z"/>
<path d="M3410 923 c-65 -24 -152 -114 -174 -181 -38 -113 -6 -244 77 -319 64
-58 120 -78 212 -77 93 0 156 25 215 84 60 60 85 123 85 210 0 122 -57 214
-168 272 -56 29 -183 35 -247 11z m242 -50 c86 -47 137 -130 138 -227 0 -72
-19 -122 -67 -176 -60 -67 -112 -90 -199 -90 -157 0 -263 106 -264 263 0 52 6
79 25 116 68 136 233 187 367 114z"/>
<path d="M4190 640 c0 -283 1 -290 20 -290 19 0 20 8 22 265 l3 265 143 -241
c117 -196 146 -238 157 -229 8 6 74 112 147 236 73 123 135 224 138 224 3 0 5
-116 5 -257 0 -238 1 -258 18 -261 16 -3 17 16 17 288 l0 291 -27 -3 c-24 -3
-44 -31 -167 -237 l-138 -233 -140 236 c-131 221 -142 236 -169 236 l-29 0 0
-290z"/>
<path d="M5260 640 c0 -283 0 -290 20 -290 19 0 20 7 20 100 l0 100 103 0
c125 0 214 14 246 38 60 45 83 111 70 200 -8 56 -35 92 -89 120 -41 20 -58 22
-207 22 l-163 0 0 -290z m357 237 c45 -24 67 -70 67 -139 1 -68 -21 -103 -79
-132 -31 -15 -67 -21 -172 -24 l-133 -5 0 163 0 162 143 -4 c111 -3 149 -7
174 -21z"/>
<path d="M6070 640 l0 -290 190 0 c162 0 190 2 190 15 0 13 -26 15 -170 15
l-170 0 0 275 c0 268 0 275 -20 275 -20 0 -20 -7 -20 -290z"/>
<path d="M6780 640 l0 -290 215 0 c183 0 215 2 215 15 0 12 -31 15 -197 17
l-198 3 0 120 0 120 178 3 c148 2 177 5 177 17 0 13 -28 15 -180 15 l-180 0 0
120 0 120 195 0 c167 0 195 2 195 15 0 13 -30 15 -210 15 l-210 0 0 -290z"/>
<path d="M7482 918 c3 -9 37 -14 111 -16 l107 -3 0 -274 c0 -238 2 -275 15
-275 13 0 15 37 15 275 l0 275 105 0 c87 0 105 3 105 15 0 13 -32 15 -231 15
-180 0 -230 -3 -227 -12z"/>
<path d="M8270 640 l0 -290 215 0 c183 0 215 2 215 15 0 12 -31 15 -197 17
l-198 3 0 120 0 120 178 3 c148 2 177 5 177 17 0 13 -28 15 -180 15 l-180 0 0
120 0 120 195 0 c167 0 195 2 195 15 0 13 -30 15 -210 15 l-210 0 0 -290z"/>
<path d="M9440 640 c0 -283 0 -290 20 -290 19 0 20 7 20 99 l0 98 144 5 c163
6 219 24 255 81 41 68 35 183 -12 236 -47 51 -88 61 -264 61 l-163 0 0 -290z
m360 235 c49 -29 72 -77 67 -143 -4 -60 -27 -97 -77 -126 -27 -16 -54 -19
-169 -20 l-136 -1 -3 158 -3 159 143 -4 c122 -2 148 -6 178 -23z"/>
<path d="M10266 655 c-154 -335 -143 -305 -118 -305 16 0 30 19 61 85 l40 85
170 0 170 0 40 -85 c31 -66 44 -85 60 -85 25 0 36 -28 -119 308 -117 255 -127
272 -151 272 -25 0 -34 -16 -153 -275z m237 58 l76 -163 -160 0 -159 0 12 29
c59 134 144 309 149 303 4 -4 41 -80 82 -169z"/>
<path d="M11030 640 c0 -283 0 -290 20 -290 20 0 20 7 20 290 0 283 0 290 -20
290 -20 0 -20 -7 -20 -290z"/>
<path d="M11470 640 c0 -283 0 -290 20 -290 19 0 20 7 20 115 l0 115 129 0
128 0 78 -111 c42 -61 83 -113 91 -116 36 -14 26 11 -47 116 -44 62 -79 115
-77 116 2 1 25 12 51 23 38 17 51 30 67 64 47 103 7 215 -89 247 -20 6 -103
11 -202 11 l-169 0 0 -290z m377 237 c87 -47 85 -199 -3 -242 -31 -16 -68 -20
-186 -23 l-148 -4 0 147 0 147 153 -4 c121 -3 159 -7 184 -21z"/>
</g>
</svg>
